<svg id="Capa_1" data-name="Capa 1" xmlns="http://www.w3.org/2000/svg" viewBox="0 0 192.7 191.17"><title>Logo_02</title><path d="M653.92,738.56c-2.18-25.85,9-47.7,26.3-66.56,11.24-12.22,25.54-20.53,41.61-25.4,2.94-.9,4.46-1,4,3.24-2.94,27.81,4.38,52.69,22.48,74.13,21.78,25.79,50.13,35.88,83.22,34.18a41.71,41.71,0,0,0,10.74-1.74c4.37-1.42,4.48.85,3.7,3.7-3.81,13.81-9,27-17.88,38.48-15.6,20.17-35.75,33.22-60.92,37.21-33.43,5.3-62.88-3.71-86.85-27.95C667.12,794.49,651.4,770.33,653.92,738.56Z" transform="translate(-653.65 -646.09)" style="fill:#010101"/></svg>