<svg id="Capa_1" data-name="Capa 1" xmlns="http://www.w3.org/2000/svg" viewBox="0 0 147.34 147.04"><title>Logo_05</title><path d="M676.33,699a75.17,75.17,0,0,1,29-22.66c12.14-5.46,24.85-9,38.37-8.18a84.69,84.69,0,0,1,43.92,15.05c18.83,13.1,30.81,30.87,34.66,53.45,4.28,25.08-.9,48.1-17.52,68-2.55,3-5.38,5.86-8,8.85-1,1.08-2.13,2.15-3.37,1.26-1.6-1.14.1-2.34.65-3.33,11.72-21.1,14.4-43.43,6.5-66.07-10.55-30.26-31.85-49.44-63.57-56.06-19.77-4.13-38.49-.39-56.24,8.92C679.47,698.83,678.48,700.49,676.33,699Z" transform="translate(-676.33 -668.02)" style="fill:#050505"/></svg>