<svg id="Capa_1" data-name="Capa 1" xmlns="http://www.w3.org/2000/svg" viewBox="0 0 192.29 191.38"><title>Logo_04</title><path d="M845.79,744.64c2.42,24.56-7.68,45.7-24,64.31a90.67,90.67,0,0,1-42.53,27.3c-5.22,1.59-5.11,1.39-4.78-4,1.75-28.42-5.22-54-24.69-75.57-21.6-24-48.93-33-80.39-31.64a61.55,61.55,0,0,0-11.26,1.79c-3.88.91-4.9-.5-4-4a101,101,0,0,1,23.38-44.94A96.8,96.8,0,0,1,802,661.26c19.94,12.89,33,30.75,40.93,52.8C846.38,723.68,846,733.65,845.79,744.64Z" transform="translate(-653.85 -645.74)" style="fill:#010101"/></svg>